<?xml version="1.0" standalone="no"?>
<svg xmlns:xlink="http://www.w3.org/1999/xlink" id="wave" style="transform:rotate(180deg); transition: 0.3s" viewBox="0 0 1440 490" version="1.1" xmlns="http://www.w3.org/2000/svg"><defs><linearGradient id="sw-gradient-0" x1="0" x2="0" y1="1" y2="0"><stop stop-color="rgba(0, 153, 255, 1)" offset="0%"/><stop stop-color="rgba(255, 255, 255, 1)" offset="100%"/></linearGradient></defs><path style="transform:translate(0, 0px); opacity:1" fill="url(#sw-gradient-0)" d="M0,294L17.1,245C34.3,196,69,98,103,114.3C137.1,131,171,261,206,310.3C240,359,274,327,309,269.5C342.9,212,377,131,411,89.8C445.7,49,480,49,514,106.2C548.6,163,583,278,617,318.5C651.4,359,686,327,720,261.3C754.3,196,789,98,823,57.2C857.1,16,891,33,926,73.5C960,114,994,180,1029,179.7C1062.9,180,1097,114,1131,81.7C1165.7,49,1200,49,1234,114.3C1268.6,180,1303,310,1337,343C1371.4,376,1406,310,1440,261.3C1474.3,212,1509,180,1543,196C1577.1,212,1611,278,1646,253.2C1680,229,1714,114,1749,57.2C1782.9,0,1817,0,1851,24.5C1885.7,49,1920,98,1954,147C1988.6,196,2023,245,2057,236.8C2091.4,229,2126,163,2160,122.5C2194.3,82,2229,65,2263,81.7C2297.1,98,2331,147,2366,187.8C2400,229,2434,261,2451,277.7L2468.6,294L2468.6,490L2451.4,490C2434.3,490,2400,490,2366,490C2331.4,490,2297,490,2263,490C2228.6,490,2194,490,2160,490C2125.7,490,2091,490,2057,490C2022.9,490,1989,490,1954,490C1920,490,1886,490,1851,490C1817.1,490,1783,490,1749,490C1714.3,490,1680,490,1646,490C1611.4,490,1577,490,1543,490C1508.6,490,1474,490,1440,490C1405.7,490,1371,490,1337,490C1302.9,490,1269,490,1234,490C1200,490,1166,490,1131,490C1097.1,490,1063,490,1029,490C994.3,490,960,490,926,490C891.4,490,857,490,823,490C788.6,490,754,490,720,490C685.7,490,651,490,617,490C582.9,490,549,490,514,490C480,490,446,490,411,490C377.1,490,343,490,309,490C274.3,490,240,490,206,490C171.4,490,137,490,103,490C68.6,490,34,490,17,490L0,490Z"/></svg>